<svg width="31" height="31" viewBox="0 0 31 31" fill="none" xmlns="http://www.w3.org/2000/svg">
<g clip-path="url(#clip0_131_327)">
<path fill-rule="evenodd" clip-rule="evenodd" d="M15.3179 4.72415C23.589 4.72415 30.3179 11.4547 30.3179 19.7242C30.3179 20.9294 30.1785 22.1171 29.9032 23.2536L29.739 23.9277H20.9861C20.5626 25.0977 19.7384 26.1283 18.5561 26.7565C17.8079 27.15 16.9679 27.36 16.1243 27.36C14.1955 27.36 12.4361 26.303 11.5343 24.6C11.4426 24.4253 11.349 24.1977 11.2555 23.9277H0.896699L0.732574 23.2536C0.457277 22.1171 0.317871 20.9295 0.317871 19.7242C0.317871 11.4547 7.0467 4.72415 15.3179 4.72415ZM17.9455 23.9277C18.6902 23.1565 18.902 21.9724 18.3726 20.9736C17.7126 19.7312 12.0637 14.5112 12.0637 14.5112C12.0637 14.5112 13.2143 22.1171 13.8726 23.3594C13.9873 23.5765 14.1373 23.7583 14.2979 23.9277H14.2837C14.3155 23.9612 14.3543 23.9842 14.3861 24.0142C14.4584 24.083 14.5326 24.1465 14.6102 24.2047C14.6685 24.2489 14.7302 24.2877 14.7902 24.3247C14.8714 24.3742 14.9526 24.42 15.039 24.4624C15.1061 24.4924 15.1732 24.5206 15.2437 24.5471C15.3285 24.5771 15.4149 24.6053 15.5049 24.6265C15.5783 24.6458 15.6525 24.6617 15.7273 24.6742C15.8173 24.6883 15.9055 24.6971 15.9955 24.7006C16.0396 24.7024 16.082 24.713 16.1243 24.713C16.1543 24.713 16.1843 24.7024 16.2143 24.7024C16.3432 24.6989 16.4702 24.6812 16.5973 24.6565C16.6555 24.6442 16.7155 24.6389 16.7737 24.623C16.9573 24.5736 17.1373 24.51 17.3102 24.4165H17.3155V24.4147C17.5608 24.2859 17.7637 24.1147 17.9455 23.9277H17.9455ZM23.5943 14.1494L25.3555 12.3883L23.4849 10.5159L21.722 12.2771L23.5943 14.1494ZM13.9943 10.1736H16.6414V7.68181H13.9943V10.1736ZM7.0414 14.1495L8.91375 12.2771L7.15257 10.5159L5.28023 12.3883L7.0414 14.1495Z" fill="#212047"/>
</g>
<defs>
<clipPath id="clip0_131_327">
<rect width="30" height="30" fill="white" transform="translate(0.317871 0.317902)"/>
</clipPath>
</defs>
</svg>
